HIERARCHY
ROOT Hips
{
	OFFSET 0.000000 0.000000 0.000000
	CHANNELS 6 Xposition Yposition Zposition Xrotation Yrotation Zrotation
	JOINT LeftUpLeg_virtual
	{
		OFFSET 0.000000 0.000000 0.000000
		CHANNELS 3 Xrotation Yrotation Zrotation
		JOINT LeftUpLeg
		{
			OFFSET 13.026900 -6.336304 -1.092800
			CHANNELS 3 Xrotation Yrotation Zrotation
			JOINT LeftLeg
			{
				OFFSET 0.524474 -46.096886 9.782700
				CHANNELS 3 Xrotation Yrotation Zrotation
				JOINT LeftFoot
				{
					OFFSET -0.524474 -53.427422 -12.948200
					CHANNELS 3 Xrotation Yrotation Zrotation
					JOINT LeftToeBase
					{
						OFFSET 0.192200 -14.009700 16.364100
						CHANNELS 3 Xrotation Yrotation Zrotation
						JOINT LeftToe_End
						{
							OFFSET -1.784700 -0.561700 9.474800
							CHANNELS 3 Xrotation Yrotation Zrotation
							End Site
							{
								OFFSET 0 0 0
							}
						}
					}
				}
			}
		}
	}
	JOINT RightUpLeg_virtual
	{
		OFFSET 0.000000 0.000000 0.000000
		CHANNELS 3 Xrotation Yrotation Zrotation
		JOINT RightUpLeg
		{
			OFFSET -12.883000 -6.336304 -1.092800
			CHANNELS 3 Xrotation Yrotation Zrotation
			JOINT RightLeg
			{
				OFFSET -0.524587 -46.096825 9.782800
				CHANNELS 3 Xrotation Yrotation Zrotation
				JOINT RightFoot
				{
					OFFSET 0.524587 -53.427383 -12.948300
					CHANNELS 3 Xrotation Yrotation Zrotation
					JOINT RightToeBase
					{
						OFFSET -0.192200 -14.009700 16.364100
						CHANNELS 3 Xrotation Yrotation Zrotation
						JOINT RightToe_End
						{
							OFFSET 1.784700 -0.561700 9.474800
							CHANNELS 3 Xrotation Yrotation Zrotation
							End Site
							{
								OFFSET 0 0 0
							}
						}
					}
				}
			}
		}
	}
	JOINT Spine_virtual
	{
		OFFSET 0.000000 0.000000 0.000000
		CHANNELS 3 Xrotation Yrotation Zrotation
		JOINT Spine
		{
			OFFSET 0.072000 7.257294 -0.789700
			CHANNELS 3 Xrotation Yrotation Zrotation
			JOINT Spine1
			{
				OFFSET 0.000000 12.508769 -0.658067
				CHANNELS 3 Xrotation Yrotation Zrotation
				JOINT Spine1_split
				{
					OFFSET 0.000000 12.508769 -0.658067
					CHANNELS 3 Xrotation Yrotation Zrotation
					JOINT Spine2
					{
						OFFSET 0.000000 12.508769 -0.658067
						CHANNELS 3 Xrotation Yrotation Zrotation
						JOINT Neck_virtual
						{
							OFFSET 0.000000 0.000000 0.000000
							CHANNELS 3 Xrotation Yrotation Zrotation
							JOINT Neck
							{
								OFFSET 0.000000 14.033295 7.520400
								CHANNELS 3 Xrotation Yrotation Zrotation
								JOINT Head
								{
									OFFSET 0.000000 8.198502 5.703100
									CHANNELS 3 Xrotation Yrotation Zrotation
									JOINT HeadTop_End
									{
										OFFSET 0.000000 17.760803 13.332701
										CHANNELS 3 Xrotation Yrotation Zrotation
										End Site
										{
											OFFSET 0 0 0
										}
									}
								}
							}
						}
						JOINT LeftShoulder_virtual
						{
							OFFSET 0.000000 0.000000 0.000000
							CHANNELS 3 Xrotation Yrotation Zrotation
							JOINT LeftShoulder
							{
								OFFSET 6.292450 5.785301 -0.669000
								CHANNELS 3 Xrotation Yrotation Zrotation
								JOINT LeftShoulder_split
								{
									OFFSET 6.292450 5.785301 -0.669000
									CHANNELS 3 Xrotation Yrotation Zrotation
									JOINT LeftArm
									{
										OFFSET 13.907140 -6.093903 1.965100
										CHANNELS 3 Xrotation Yrotation Zrotation
										JOINT LeftForeArm
										{
											OFFSET 34.140198 0.000000 0.000000
											CHANNELS 3 Xrotation Yrotation Zrotation
											JOINT LeftHand
											{
												OFFSET 40.960209 0.000000 0.000000
												CHANNELS 3 Xrotation Yrotation Zrotation
												End Site
												{
													OFFSET 0 0 0
												}
											}
										}
									}
								}
							}
						}
						JOINT RightShoulder_virtual
						{
							OFFSET 0.000000 0.000000 0.000000
							CHANNELS 3 Xrotation Yrotation Zrotation
							JOINT RightShoulder
							{
								OFFSET -6.292450 5.785301 -0.669000
								CHANNELS 3 Xrotation Yrotation Zrotation
								JOINT RightShoulder_split
								{
									OFFSET -6.292450 5.785301 -0.669000
									CHANNELS 3 Xrotation Yrotation Zrotation
									JOINT RightArm
									{
										OFFSET -13.907140 -6.093903 1.965100
										CHANNELS 3 Xrotation Yrotation Zrotation
										JOINT RightForeArm
										{
											OFFSET -34.140198 0.000000 0.000000
											CHANNELS 3 Xrotation Yrotation Zrotation
											JOINT RightHand
											{
												OFFSET -40.960209 0.000000 0.000000
												CHANNELS 3 Xrotation Yrotation Zrotation
												End Site
												{
													OFFSET 0 0 0
												}
											}
										}
									}
								}
							}
						}
					}
				}
			}
		}
	}
}
MOTION
Frames: 11
Frame Time: 0.03333333
3.639507 41.075851 -27.389271 0.000000 0.000000 0.000000 38.759384 4.405317 2.090253 -88.889892 -13.310633 3.397523 127.611539 1.276511 -2.520022 42.891030 3.172831 -22.834987 13.388603 3.468570 15.807566 0.000000 0.000000 0.000000 38.759384 4.405317 2.090253 -76.691632 24.302177 -21.757566 127.075096 8.306114 4.666680 31.990055 9.629186 16.043964 -22.281375 -1.894364 -13.869923 0.000000 0.000000 0.000000 38.759384 4.405317 2.090253 20.923159 5.094713 -4.546605 15.516006 2.138019 -0.928599 0.000000 0.000000 0.000000 0.000000 0.000000 0.000000 15.624807 1.316321 -1.767700 5.240116 -1.505188 2.906324 -2.689076 -9.770850 5.427024 0.000000 0.000000 0.000000 15.624807 1.316321 -1.767700 1.844622 -37.468352 -5.605135 0.000000 0.000000 0.000000 -61.538597 -38.718929 -55.618090 -0.000047 -59.628494 -0.000051 0.000000 0.000000 0.000000 15.624807 1.316321 -1.767700 0.270162 16.345264 0.362628 0.000000 0.000000 0.000000 -41.540640 20.444401 40.456676 0.000024 65.923763 -0.000042 0.000000 0.000000 0.000000 
3.246943 40.568336 -28.623219 0.000000 0.000000 0.000000 35.529155 3.040317 2.164114 -87.454787 -13.636049 4.449060 128.939806 0.779586 -1.975595 43.671413 3.057093 -23.352289 13.378131 3.467970 15.806403 0.000000 0.000000 0.000000 35.529155 3.040317 2.164114 -77.877277 23.754409 -18.573663 128.783599 7.287679 3.491195 33.484087 9.299980 16.327803 -22.292529 -1.889907 -13.855522 0.000000 0.000000 0.000000 35.529155 3.040317 2.164114 20.876246 4.978343 -5.680327 16.625270 2.079676 -1.485669 0.000000 0.000000 0.000000 0.000000 0.000000 0.000000 17.328736 1.234475 -2.301337 5.476111 -1.525563 3.253848 0.036667 -8.619863 6.396879 0.000000 0.000000 0.000000 17.328736 1.234475 -2.301337 1.353982 -36.456654 -6.881259 0.000000 0.000000 0.000000 -62.004498 -39.879890 -54.567710 0.000003 -60.951870 -0.000006 0.000000 0.000000 0.000000 17.328736 1.234475 -2.301337 0.501204 13.720770 0.229929 0.000000 0.000000 0.000000 -44.186884 22.328126 43.767907 0.000005 66.682003 0.000003 0.000000 0.000000 0.000000 
2.781875 40.229935 -29.752567 0.000000 0.000000 0.000000 31.504732 1.587171 2.130868 -84.662169 -14.324582 5.678379 129.995480 -0.045614 -1.626747 44.247492 2.924701 -24.040131 13.390384 3.485946 15.847763 0.000000 0.000000 0.000000 31.504732 1.587171 2.130868 -78.147206 22.247487 -15.104540 130.266269 6.114104 2.187108 34.932770 8.474589 16.801528 -22.355143 -1.862907 -13.763945 0.000000 0.000000 0.000000 31.504732 1.587171 2.130868 21.408504 4.331916 -6.760721 17.202567 1.870333 -1.986120 0.000000 0.000000 0.000000 0.000000 0.000000 0.000000 18.500459 1.040075 -2.690533 5.684557 -1.489048 3.465679 2.673362 -7.397687 7.196648 0.000000 0.000000 0.000000 18.500459 1.040075 -2.690533 -0.501352 -31.291077 -12.871381 0.000000 0.000000 0.000000 -60.476728 -44.977373 -51.911743 -0.000019 -61.886493 -0.000023 0.000000 0.000000 0.000000 18.500459 1.040075 -2.690533 0.552208 11.477477 0.087594 0.000000 0.000000 0.000000 -48.643193 26.757860 49.917153 0.000015 63.773579 0.000000 0.000000 0.000000 0.000000 
2.527790 40.151306 -30.296864 0.000000 0.000000 0.000000 29.037327 0.737484 2.072031 -82.454993 -15.053114 6.575996 130.411916 -0.312021 -1.621491 44.389956 2.447245 -24.078310 13.409099 3.498575 15.876416 0.000000 0.000000 0.000000 29.037327 0.737484 2.072031 -77.633535 21.804090 -13.287108 130.823162 6.819952 2.079923 35.634381 7.088855 17.579041 -22.424770 -1.832946 -13.661142 0.000000 0.000000 0.000000 29.037327 0.737484 2.072031 21.579021 3.628468 -7.141519 17.359165 1.662020 -2.184651 0.000000 0.000000 0.000000 0.000000 0.000000 0.000000 18.863270 0.849934 -2.748511 5.745504 -1.402226 3.348723 4.259352 -6.738456 7.407410 0.000000 0.000000 0.000000 18.863270 0.849934 -2.748511 -1.471515 -24.595009 -20.001005 0.000000 0.000000 0.000000 -56.443727 -50.000519 -47.503488 -0.000036 -67.329403 -0.000040 0.000000 0.000000 0.000000 18.863270 0.849934 -2.748511 0.263095 11.153648 0.069187 0.000000 0.000000 0.000000 -51.972064 29.135671 55.668285 0.000005 63.901501 0.000002 0.000000 0.000000 0.000000 
2.371175 40.182678 -30.588902 0.000000 0.000000 0.000000 27.265060 0.143667 2.016261 -80.590242 -15.272966 7.281150 130.568656 0.049138 -1.459491 44.329560 1.889169 -23.724457 13.427541 3.493633 15.864197 0.000000 0.000000 0.000000 27.265060 0.143667 2.016261 -76.708475 22.378596 -12.176427 130.946269 8.427253 2.717457 35.975682 5.766774 18.491115 -22.463010 -1.817114 -13.607230 0.000000 0.000000 0.000000 27.265060 0.143667 2.016261 21.577840 2.939599 -7.245326 17.366668 1.463864 -2.265015 0.000000 0.000000 0.000000 0.000000 0.000000 0.000000 18.915883 0.669725 -2.681169 5.753616 -1.299035 3.107461 5.454242 -6.327086 7.391639 0.000000 0.000000 0.000000 18.915883 0.669725 -2.681169 -1.505340 -20.967098 -23.570351 0.000000 0.000000 0.000000 -51.635311 -49.991589 -43.575453 0.000081 -74.725773 0.000080 0.000000 0.000000 0.000000 18.915883 0.669725 -2.681169 0.078040 10.725511 0.114939 0.000000 0.000000 0.000000 -53.386514 29.562216 60.897673 0.000020 65.806229 -0.000016 0.000000 0.000000 0.000000 
2.229441 40.210312 -30.880009 0.000000 0.000000 0.000000 25.500049 -0.444191 1.938504 -78.784941 -14.982213 7.912491 130.715423 0.649511 -1.026388 44.260770 1.472442 -23.428824 13.441088 3.486892 15.847832 0.000000 0.000000 0.000000 25.500049 -0.444191 1.938504 -75.982344 22.210858 -11.094325 131.164070 8.818480 2.758516 36.416694 5.060229 18.891791 -22.471201 -1.813955 -13.596782 0.000000 0.000000 0.000000 25.500049 -0.444191 1.938504 21.576627 2.255658 -7.344495 17.369202 1.267241 -2.344661 0.000000 0.000000 0.000000 0.000000 0.000000 0.000000 18.959975 0.491064 -2.613837 5.762302 -1.196954 2.867359 6.643886 -5.935150 7.371950 0.000000 0.000000 0.000000 18.959975 0.491064 -2.613837 -1.471829 -20.158964 -23.820415 0.000000 0.000000 0.000000 -50.248940 -46.850026 -43.581398 0.000061 -76.454228 0.000060 0.000000 0.000000 0.000000 18.959975 0.491064 -2.613837 0.165549 10.138402 0.143771 0.000000 0.000000 0.000000 -55.185982 31.021418 65.611268 0.000028 62.565264 -0.000023 0.000000 0.000000 0.000000 
2.107362 40.236584 -31.159992 0.000000 0.000000 0.000000 23.781021 -1.011806 1.840577 -77.026516 -14.549678 8.455890 130.830976 0.933519 -0.608808 44.195005 1.398167 -23.439568 13.437524 3.478581 15.828482 0.000000 0.000000 0.000000 23.781021 -1.011806 1.840577 -75.457785 21.069064 -9.985013 131.497671 7.793743 2.057306 36.917326 4.973262 18.811663 -22.460676 -1.818579 -13.613107 0.000000 0.000000 0.000000 23.781021 -1.011806 1.840577 21.577430 1.587487 -7.424978 17.350967 1.076123 -2.418487 0.000000 0.000000 0.000000 0.000000 0.000000 0.000000 18.965361 0.318031 -2.542864 5.765357 -1.098333 2.627597 7.803540 -5.592898 7.346259 0.000000 0.000000 0.000000 18.965361 0.318031 -2.542864 -1.448656 -19.889156 -23.635851 0.000000 0.000000 0.000000 -50.808486 -43.430957 -46.361979 0.000173 -74.462695 0.000175 0.000000 0.000000 0.000000 18.965361 0.318031 -2.542864 0.313439 10.174085 0.164288 0.000000 0.000000 0.000000 -56.677757 33.253100 68.805666 0.000025 56.654384 -0.000024 0.000000 0.000000 0.000000 
2.002447 40.285751 -31.386578 0.000000 0.000000 0.000000 22.218945 -1.523806 1.737879 -75.329077 -14.153638 8.949883 130.878036 0.965247 -0.295675 44.095032 1.495038 -23.611197 13.431844 3.469485 15.807424 0.000000 0.000000 0.000000 22.218945 -1.523806 1.737879 -75.018488 19.173980 -9.022514 131.814182 5.917840 0.877375 37.395019 5.134135 18.381557 -22.441597 -1.827086 -13.643187 0.000000 0.000000 0.000000 22.218945 -1.523806 1.737879 21.611323 0.986553 -7.461408 17.251454 0.909331 -2.474859 0.000000 0.000000 0.000000 0.000000 0.000000 0.000000 18.816150 0.170040 -2.465169 5.753148 -1.016959 2.399507 8.849517 -5.421282 7.330571 0.000000 0.000000 0.000000 18.816150 0.170040 -2.465169 -1.372368 -19.720814 -23.243557 0.000000 0.000000 0.000000 -51.195236 -39.515677 -49.541073 0.000030 -73.107046 0.000025 0.000000 0.000000 0.000000 18.816150 0.170040 -2.465169 0.427271 10.432678 0.182401 0.000000 0.000000 0.000000 -57.087353 35.205274 70.850536 0.000018 51.993230 -0.000027 0.000000 0.000000 0.000000 
1.899798 40.423714 -31.426266 0.000000 0.000000 0.000000 21.196625 -1.868273 1.696838 -74.013043 -12.962377 9.303922 130.706899 1.530998 0.381848 43.870858 1.675760 -23.624472 13.428708 3.462528 15.791350 0.000000 0.000000 0.000000 21.196625 -1.868273 1.696838 -74.271115 18.480069 -8.567446 131.799428 4.990229 0.484464 37.545605 5.327546 18.059684 -22.430317 -1.832029 -13.660427 0.000000 0.000000 0.000000 21.196625 -1.868273 1.696838 21.819444 0.650231 -7.373079 16.829178 0.839063 -2.472086 0.000000 0.000000 0.000000 0.000000 0.000000 0.000000 18.060979 0.121846 -2.374785 5.686695 -1.007305 2.239934 9.509987 -5.866751 7.420830 0.000000 0.000000 0.000000 18.060979 0.121846 -2.374785 -1.294778 -19.683458 -22.712951 0.000000 0.000000 0.000000 -50.161807 -35.935647 -51.393615 0.000026 -73.083844 0.000031 0.000000 0.000000 0.000000 18.060979 0.121846 -2.374785 0.525539 10.519721 0.197298 0.000000 0.000000 0.000000 -55.721841 36.498420 71.638139 0.000023 49.992398 -0.000027 0.000000 0.000000 0.000000 
1.798939 40.681450 -31.226292 0.000000 0.000000 0.000000 20.841598 -2.014415 1.760864 -73.160847 -10.834038 9.492162 130.241093 2.761475 1.498597 43.493849 1.919652 -23.418465 13.432893 3.460538 15.786592 0.000000 0.000000 0.000000 20.841598 -2.014415 1.760864 -73.150356 19.475535 -8.806744 131.396802 5.511836 1.199030 37.293840 5.453155 17.877605 -22.427109 -1.833316 -13.664814 0.000000 0.000000 0.000000 20.841598 -2.014415 1.760864 22.231339 0.613623 -7.097711 15.982969 0.877987 -2.377759 0.000000 0.000000 0.000000 0.000000 0.000000 0.000000 16.531317 0.187307 -2.249785 5.568287 -1.080151 2.162773 9.741246 -7.049957 7.681062 0.000000 0.000000 0.000000 16.531317 0.187307 -2.249785 -1.212737 -19.286323 -22.436967 0.000000 0.000000 0.000000 -47.664014 -33.568542 -52.056840 0.000032 -73.749268 0.000015 0.000000 0.000000 0.000000 16.531317 0.187307 -2.249785 0.574833 10.467676 0.228244 0.000000 0.000000 0.000000 -52.758454 37.905477 71.214640 0.000019 49.846140 -0.000012 0.000000 0.000000 0.000000 
1.687164 40.970963 -30.995945 0.000000 0.000000 0.000000 20.480944 -2.195905 1.906218 -72.148586 -8.939254 9.753525 129.687657 3.790309 2.425959 43.074943 2.085517 -23.193350 13.442769 3.462506 15.790769 0.000000 0.000000 0.000000 20.480944 -2.195905 1.906218 -72.129270 19.684450 -8.933593 131.022890 5.402932 1.405153 37.044293 5.510651 17.625655 -22.430077 -1.831988 -13.660033 0.000000 0.000000 0.000000 20.480944 -2.195905 1.906218 22.723708 0.629667 -6.684012 14.872860 0.924156 -2.209920 0.000000 0.000000 0.000000 0.000000 0.000000 0.000000 14.646033 0.264072 -2.079004 5.516040 -1.190076 2.193924 10.130789 -8.561689 8.328582 0.000000 0.000000 0.000000 14.646033 0.264072 -2.079004 -1.074854 -18.593805 -22.029588 0.000000 0.000000 0.000000 -44.444386 -31.755458 -52.658211 0.000026 -74.576807 0.000024 0.000000 0.000000 0.000000 14.646033 0.264072 -2.079004 0.602092 10.308248 0.149800 0.000000 0.000000 0.000000 -48.955787 39.782672 70.148099 -0.000006 50.241543 0.000005 0.000000 0.000000 0.000000 
